<?xml version="1.0" standalone="no"?>
<!DOCTYPE svg PUBLIC "-//W3C//DTD SVG 20010904//EN"
 "http://www.w3.org/TR/2001/REC-SVG-20010904/DTD/svg10.dtd">
<svg version="1.0" xmlns="http://www.w3.org/2000/svg"
 width="1200.000000pt" height="2956.000000pt" viewBox="0 0 1200.000000 2956.000000"
 preserveAspectRatio="xMidYMid meet">

<g transform="translate(0.000000,2956.000000) scale(0.100000,-0.100000)"
fill="#000000" stroke="none">
<path d="M5775 29179 c-1596 -76 -3057 -885 -3983 -2204 -158 -225 -345 -551
-457 -795 -247 -542 -391 -1082 -451 -1700 -21 -211 -23 -667 -5 -875 108
-1241 624 -2362 1487 -3229 723 -727 1634 -1219 2627 -1420 281 -57 529 -87
840 -102 l137 -7 0 -2017 0 -2018 -2560 6 -2560 5 0 -71 0 -72 1313 0 c723 0
1875 -3 2560 -7 l1247 -6 0 -891 c0 -490 -7 -2317 -15 -4061 -8 -1743 -15
-3236 -15 -3317 l0 -148 -2422 -2572 c-1332 -1415 -2507 -2662 -2611 -2771
l-189 -199 38 -39 c21 -21 43 -39 50 -39 6 0 103 96 215 213 950 993 4935
5127 4941 5125 7 -3 4004 -4151 4891 -5075 160 -167 295 -303 302 -303 6 0 28
17 49 39 l38 38 -194 204 c-107 112 -1255 1331 -2552 2709 -1298 1378 -2376
2523 -2397 2545 l-39 41 15 3304 c8 1818 15 3732 15 4253 l0 949 2530 -8 2530
-7 0 70 0 70 -1802 6 c-991 4 -2129 7 -2530 7 l-728 0 0 2020 0 2020 38 0 c94
0 382 22 532 41 677 84 1352 308 1928 641 376 216 763 511 1072 818 789 783
1300 1789 1469 2895 54 349 72 873 42 1195 -101 1103 -493 2056 -1191 2900
-129 156 -476 503 -635 636 -896 744 -1933 1147 -3097 1204 -222 11 -238 11
-473 -1z m540 -89 c717 -43 1353 -213 1993 -534 752 -375 1403 -941 1896
-1646 377 -538 651 -1172 791 -1825 209 -981 123 -2021 -245 -2941 -473 -1183
-1366 -2144 -2505 -2695 -550 -266 -1075 -416 -1705 -486 -224 -25 -801 -25
-1030 0 -198 22 -470 67 -623 103 -1182 277 -2200 940 -2925 1902 -577 765
-918 1662 -1003 2637 -18 208 -16 664 5 875 64 656 216 1194 501 1775 265 541
572 965 1006 1390 406 398 792 672 1299 924 797 396 1666 573 2545 521z"/>
</g>
</svg>
