<?xml version="1.0" standalone="no"?>
<!DOCTYPE svg PUBLIC "-//W3C//DTD SVG 20010904//EN"
 "http://www.w3.org/TR/2001/REC-SVG-20010904/DTD/svg10.dtd">
<svg version="1.0" xmlns="http://www.w3.org/2000/svg"
 width="370.000000pt" height="215.000000pt" viewBox="0 0 370.000000 215.000000"
 preserveAspectRatio="xMidYMid meet">

<g transform="translate(0.000000,215.000000) scale(0.100000,-0.100000)"
fill="#000000" stroke="none">
<path d="M1640 2144 c-530 -40 -998 -203 -1307 -455 -143 -117 -243 -254 -296
-407 -28 -78 -31 -99 -31 -207 0 -108 3 -129 31 -207 114 -325 459 -591 971
-749 119 -36 293 -73 457 -95 180 -25 598 -25 774 0 314 43 541 108 780 222
454 217 704 539 678 875 -38 488 -627 894 -1457 1004 -113 15 -491 27 -600 19z
m525 -25 c518 -49 999 -243 1271 -514 450 -448 276 -1010 -416 -1344 -676
-327 -1664 -327 -2340 0 -393 190 -623 447 -659 738 -65 513 525 980 1399
1107 224 32 488 37 745 13z"/>
<path d="M1552 1068 c3 -36 7 -44 26 -46 33 -5 52 15 52 54 0 24 -5 34 -15 34
-10 0 -15 -11 -15 -35 0 -24 -5 -35 -15 -35 -10 0 -15 11 -15 35 0 19 -5 35
-11 35 -6 0 -9 -17 -7 -42z"/>
<path d="M1850 1091 c-14 -27 -13 -37 6 -55 17 -18 64 -22 64 -6 0 6 -11 10
-25 10 -20 0 -25 5 -25 25 0 24 9 30 38 26 6 -1 12 3 12 9 0 19 -59 11 -70 -9z"/>
<path d="M1650 1074 c-11 -13 -10 -16 8 -21 12 -3 22 -10 22 -15 0 -5 -10 -6
-21 -3 -15 5 -19 4 -15 -4 11 -17 53 -13 60 5 4 11 -1 18 -14 21 -11 3 -20 10
-20 15 0 6 7 8 15 4 8 -3 15 -1 15 4 0 16 -36 12 -50 -6z"/>
<path d="M1724 1076 c-16 -41 31 -76 60 -46 8 9 6 11 -11 6 -12 -4 -24 -2 -28
4 -4 6 4 10 20 10 20 0 26 4 23 18 -4 22 -56 29 -64 8z m36 -6 c0 -5 -5 -10
-11 -10 -5 0 -7 5 -4 10 3 6 8 10 11 10 2 0 4 -4 4 -10z"/>
<path d="M1940 1081 c0 -6 7 -8 15 -5 8 4 15 2 15 -4 0 -5 -9 -12 -21 -15 -31
-8 -18 -31 20 -35 31 -3 32 -2 29 30 -2 28 -7 34 -30 36 -16 2 -28 -1 -28 -7z
m40 -35 c0 -11 -19 -15 -25 -6 -3 5 1 10 9 10 9 0 16 -2 16 -4z"/>
<path d="M2027 1083 c-13 -12 -7 -33 8 -33 8 0 15 -5 15 -11 0 -6 -9 -8 -22
-4 -18 6 -20 4 -12 -5 15 -15 56 -9 62 8 2 7 -5 16 -17 19 -12 3 -21 10 -21
15 0 6 7 8 15 4 8 -3 15 -1 15 4 0 11 -33 14 -43 3z"/>
<path d="M2094 1076 c-12 -31 0 -51 34 -54 19 -2 32 1 32 8 0 7 -8 9 -19 5
-11 -3 -22 -1 -26 5 -4 6 4 10 20 10 20 0 26 4 23 18 -4 22 -56 29 -64 8z m41
-6 c3 -5 -1 -10 -10 -10 -9 0 -13 5 -10 10 3 6 8 10 10 10 2 0 7 -4 10 -10z"/>
</g>
</svg>
