<?xml version="1.0" standalone="no"?>
<!DOCTYPE svg PUBLIC "-//W3C//DTD SVG 20010904//EN"
 "http://www.w3.org/TR/2001/REC-SVG-20010904/DTD/svg10.dtd">
<svg version="1.0" xmlns="http://www.w3.org/2000/svg"
 width="512.000000pt" height="512.000000pt" viewBox="0 0 512.000000 512.000000"
 preserveAspectRatio="xMidYMid meet">

<g transform="translate(0.000000,512.000000) scale(0.100000,-0.100000)"
fill="#000000" stroke="none">
<path d="M2350 4344 c-286 -25 -458 -51 -655 -100 -526 -131 -1012 -406 -1307
-739 -603 -682 -494 -1541 272 -2142 386 -303 938 -510 1530 -575 148 -16 592
-16 740 0 1168 128 2051 774 2175 1592 48 316 -32 645 -230 940 -356 532
-1072 910 -1905 1006 -121 14 -529 26 -620 18z m540 -185 c662 -60 1270 -318
1649 -702 274 -276 402 -562 402 -897 0 -156 -19 -264 -73 -406 -208 -552
-874 -1007 -1688 -1154 -395 -71 -845 -71 -1240 0 -814 147 -1480 602 -1688
1154 -54 142 -73 250 -73 406 0 156 19 264 73 406 211 561 887 1017 1719 1158
309 53 600 64 919 35z"/>
</g>
</svg>
