<?xml version="1.0" standalone="no"?>
<!DOCTYPE svg PUBLIC "-//W3C//DTD SVG 20010904//EN"
 "http://www.w3.org/TR/2001/REC-SVG-20010904/DTD/svg10.dtd">
<svg version="1.0" xmlns="http://www.w3.org/2000/svg"
 width="512.000000pt" height="512.000000pt" viewBox="0 0 512.000000 512.000000"
 preserveAspectRatio="xMidYMid meet">

<g transform="translate(0.000000,512.000000) scale(0.100000,-0.100000)"
fill="#000000" stroke="none">
<path d="M478 3170 c-140 -18 -274 -101 -351 -217 -26 -39 -53 -76 -62 -83
-30 -25 -57 -122 -62 -225 -5 -98 8 -213 26 -224 5 -3 27 -31 50 -61 23 -30
60 -69 83 -88 48 -37 151 -89 197 -98 20 -4 38 -18 50 -38 45 -71 136 -139
231 -172 53 -18 115 -19 2095 -19 l2040 0 56 23 c84 33 146 79 195 141 61 77
85 146 91 261 8 151 -16 244 -91 342 -18 24 -43 76 -55 118 -27 87 -79 193
-118 234 -14 16 -61 45 -102 64 -67 31 -90 36 -191 43 -145 10 -4005 9 -4082
-1z m4073 -80 c174 -33 313 -183 340 -367 12 -77 5 -184 -17 -257 -28 -96
-114 -200 -206 -247 -100 -51 -1 -49 -2164 -49 -1986 0 -2023 0 -2086 20 -120
37 -205 111 -262 230 -29 60 -31 74 -34 192 -4 110 -1 136 18 193 24 71 78
150 134 197 46 37 134 78 194 88 72 12 4018 12 4083 0z"/>
</g>
</svg>
