<?xml version="1.0" standalone="no"?>
<!DOCTYPE svg PUBLIC "-//W3C//DTD SVG 20010904//EN"
 "http://www.w3.org/TR/2001/REC-SVG-20010904/DTD/svg10.dtd">
<svg version="1.0" xmlns="http://www.w3.org/2000/svg"
 width="512.000000pt" height="512.000000pt" viewBox="0 0 512.000000 512.000000"
 preserveAspectRatio="xMidYMid meet">

<g transform="translate(0.000000,512.000000) scale(0.100000,-0.100000)"
fill="#000000" stroke="none">
<path d="M243 3830 c-95 -19 -169 -79 -212 -170 l-26 -55 0 -1045 0 -1045 26
-55 c33 -70 79 -116 149 -149 l55 -26 2325 0 2325 0 55 26 c70 33 116 79 149
149 l26 55 0 1045 0 1045 -26 55 c-33 70 -79 116 -149 149 l-55 26 -2300 1
c-1265 1 -2319 -2 -2342 -6z m2957 -1270 l0 -960 -1440 0 -1440 0 0 960 0 960
1440 0 1440 0 0 -960z m1281 95 l-321 -225 -321 225 -322 225 643 0 643 0
-322 -225z"/>
<path d="M640 2560 l0 -640 160 0 160 0 0 640 0 640 -160 0 -160 0 0 -640z"/>
</g>
</svg>
