<?xml version="1.0" standalone="no"?>
<!DOCTYPE svg PUBLIC "-//W3C//DTD SVG 20010904//EN"
 "http://www.w3.org/TR/2001/REC-SVG-20010904/DTD/svg10.dtd">
<svg version="1.0" xmlns="http://www.w3.org/2000/svg"
 width="512.000000pt" height="512.000000pt" viewBox="0 0 512.000000 512.000000"
 preserveAspectRatio="xMidYMid meet">

<g transform="translate(0.000000,512.000000) scale(0.100000,-0.100000)"
fill="#000000" stroke="none">
<path d="M115 3833 c-100 -53 -141 -162 -96 -258 13 -28 352 -373 1102 -1121
1049 -1047 1086 -1083 1159 -1118 103 -50 169 -66 280 -66 111 0 177 16 280
66 73 35 110 71 1159 1118 750 748 1089 1093 1102 1121 60 129 -36 275 -180
275 -27 0 -62 -5 -77 -10 -14 -6 -508 -488 -1096 -1073 -588 -584 -1084 -1070
-1101 -1079 -42 -24 -132 -24 -174 0 -17 9 -513 495 -1101 1079 -588 585
-1082 1067 -1096 1073 -40 15 -127 11 -161 -7z"/>
</g>
</svg>
