<?xml version="1.0" standalone="no"?>
<!DOCTYPE svg PUBLIC "-//W3C//DTD SVG 20010904//EN"
 "http://www.w3.org/TR/2001/REC-SVG-20010904/DTD/svg10.dtd">
<svg version="1.0" xmlns="http://www.w3.org/2000/svg"
 width="512.000000pt" height="512.000000pt" viewBox="0 0 512.000000 512.000000"
 preserveAspectRatio="xMidYMid meet">
<metadata>
Created by potrace 1.16, written by Peter Selinger 2001-2019
</metadata>
<g transform="translate(0.000000,512.000000) scale(0.100000,-0.100000)"
fill="#000000" stroke="none">
<path d="M2375 5092 c-238 -81 -385 -288 -385 -542 0 -157 56 -295 166 -404
221 -222 587 -222 808 0 110 109 166 247 166 404 0 256 -153 469 -393 545
-113 36 -251 35 -362 -3z"/>
<path d="M1420 3130 l0 -290 425 0 425 0 0 -1135 0 -1135 -425 0 -425 0 0
-285 0 -285 1140 0 1140 0 0 285 0 285 -425 0 -425 0 -2 1318 -3 1317 -23 46
c-29 59 -79 109 -139 140 l-48 24 -607 3 -608 3 0 -291z"/>
</g>
</svg>
