<?xml version="1.0" standalone="no"?>
<!DOCTYPE svg PUBLIC "-//W3C//DTD SVG 20010904//EN"
 "http://www.w3.org/TR/2001/REC-SVG-20010904/DTD/svg10.dtd">
<svg version="1.0" xmlns="http://www.w3.org/2000/svg"
 width="512.000000pt" height="512.000000pt" viewBox="0 0 512.000000 512.000000"
 preserveAspectRatio="xMidYMid meet">
<metadata>
Created by potrace 1.16, written by Peter Selinger 2001-2019
</metadata>
<g transform="translate(0.000000,512.000000) scale(0.100000,-0.100000)"
fill="#000000" stroke="none">
<path d="M468 4441 c-153 -49 -264 -172 -297 -329 -16 -75 -16 -3139 0 -3214
33 -158 145 -281 300 -329 59 -18 126 -19 2089 -19 1991 0 2029 0 2091 20 150
46 265 173 298 328 16 76 16 3139 0 3214 -34 159 -145 281 -300 329 -59 18
-126 19 -2092 18 -1942 0 -2035 -1 -2089 -18z m4147 -218 c51 -27 90 -68 109
-115 14 -33 16 -210 16 -1603 0 -1393 -2 -1570 -16 -1603 -19 -47 -58 -88
-109 -115 l-40 -22 -2015 0 -2015 0 -40 22 c-51 27 -90 68 -109 115 -14 33
-16 210 -16 1603 0 1393 2 1570 16 1603 26 62 82 111 154 133 14 4 925 7 2025
6 l2000 -2 40 -22z"/>
<path d="M1284 3707 c-111 -29 -214 -120 -255 -225 -31 -79 -31 -195 0 -275
32 -81 113 -166 193 -203 54 -25 75 -29 153 -29 77 0 98 4 148 27 78 37 129
78 165 136 155 244 -1 560 -286 577 -37 3 -90 -1 -118 -8z m163 -223 c73 -35
106 -140 68 -214 -54 -104 -211 -107 -270 -5 -50 84 -16 187 75 227 28 12 92
8 127 -8z"/>
<path d="M2875 3510 c-11 -5 -173 -162 -360 -349 l-340 -341 -108 108 c-104
104 -109 107 -152 107 l-45 0 -460 -460 c-496 -496 -489 -487 -455 -558 18
-39 50 -57 103 -57 35 0 55 19 444 407 l408 407 98 -96 c54 -54 111 -102 128
-108 69 -27 75 -22 439 341 l341 339 564 -626 c310 -344 575 -634 588 -645 30
-23 93 -25 126 -4 32 21 50 67 42 109 -5 28 -129 170 -617 713 -335 373 -624
688 -641 701 -32 23 -68 27 -103 12z"/>
<path d="M977 1564 c-15 -14 -29 -35 -33 -46 -11 -36 5 -86 37 -112 l31 -26
1578 0 1578 0 31 26 c51 43 51 115 0 163 l-23 21 -1587 0 -1586 0 -26 -26z"/>
</g>
</svg>
