<?xml version="1.0" standalone="no"?>
<!DOCTYPE svg PUBLIC "-//W3C//DTD SVG 20010904//EN"
 "http://www.w3.org/TR/2001/REC-SVG-20010904/DTD/svg10.dtd">
<svg version="1.0" xmlns="http://www.w3.org/2000/svg"
 width="512.000000pt" height="512.000000pt" viewBox="0 0 512.000000 512.000000"
 preserveAspectRatio="xMidYMid meet">
<metadata>
Created by potrace 1.16, written by Peter Selinger 2001-2019
</metadata>
<g transform="translate(0.000000,512.000000) scale(0.100000,-0.100000)"
fill="#000000" stroke="none">
<path d="M286 5106 c-81 -30 -80 -28 -88 -289 -12 -385 -38 -601 -105 -875
-34 -141 -36 -156 -23 -180 20 -35 81 -65 145 -70 47 -4 54 -1 82 26 17 18 55
86 87 159 254 567 499 755 1101 844 58 9 191 14 375 14 281 0 286 0 322 -23
27 -17 40 -34 48 -62 17 -62 8 -3879 -9 -3945 -23 -91 -78 -191 -124 -229 -49
-40 -170 -98 -324 -155 -247 -91 -313 -135 -313 -210 0 -36 19 -74 48 -98 13
-10 245 -13 1086 -13 1057 0 1071 0 1104 20 32 20 62 71 62 106 0 9 -7 31 -15
49 -17 35 -17 35 -250 91 -255 60 -450 165 -508 272 -59 109 -57 9 -57 2153 0
1929 0 1967 19 1991 35 44 105 53 406 52 295 0 432 -14 629 -60 261 -63 411
-149 527 -307 74 -98 171 -293 222 -443 46 -135 64 -166 110 -187 62 -30 166
-13 195 31 47 72 15 750 -53 1144 -26 149 -34 171 -67 189 -15 8 -624 12
-2307 15 -1991 4 -2291 3 -2325 -10z"/>
</g>
</svg>
