<?xml version="1.0" standalone="no"?>
<!DOCTYPE svg PUBLIC "-//W3C//DTD SVG 20010904//EN"
 "http://www.w3.org/TR/2001/REC-SVG-20010904/DTD/svg10.dtd">
<svg version="1.0" xmlns="http://www.w3.org/2000/svg"
 width="512.000000pt" height="512.000000pt" viewBox="0 0 512.000000 512.000000"
 preserveAspectRatio="xMidYMid meet">

<g transform="translate(0.000000,512.000000) scale(0.100000,-0.100000)"
fill="#000000" stroke="none">
<path d="M2285 4675 c-536 -71 -1019 -339 -1377 -765 -147 -175 -295 -447
-372 -681 -75 -229 -106 -422 -106 -669 0 -247 31 -440 106 -669 151 -461 457
-854 879 -1131 178 -116 454 -231 675 -280 211 -47 495 -63 705 -40 382 43
751 191 1065 428 181 137 403 387 530 596 274 455 367 1019 254 1546 -66 308
-198 591 -397 855 -73 96 -265 290 -363 367 -311 245 -700 405 -1086 447 -128
14 -388 12 -513 -4z m414 -415 c602 -54 1115 -401 1385 -937 242 -481 242
-1042 0 -1524 -100 -201 -239 -383 -395 -518 -534 -463 -1269 -557 -1894 -244
-691 347 -1063 1115 -905 1870 163 781 838 1338 1650 1362 25 0 96 -4 159 -9z"/>
<path d="M2438 3620 c-174 -22 -385 -107 -518 -208 -239 -182 -388 -448 -421
-754 -20 -186 16 -379 105 -563 63 -129 125 -214 227 -310 304 -288 760 -371
1141 -208 365 157 605 484 649 886 20 185 -16 378 -105 562 -107 219 -267 381
-482 489 -177 89 -408 130 -596 106z"/>
</g>
</svg>
