<?xml version="1.0" standalone="no"?>
<!DOCTYPE svg PUBLIC "-//W3C//DTD SVG 20010904//EN"
 "http://www.w3.org/TR/2001/REC-SVG-20010904/DTD/svg10.dtd">
<svg version="1.0" xmlns="http://www.w3.org/2000/svg"
 width="512.000000pt" height="512.000000pt" viewBox="0 0 512.000000 512.000000"
 preserveAspectRatio="xMidYMid meet">

<g transform="translate(0.000000,512.000000) scale(0.100000,-0.100000)"
fill="#000000" stroke="none">
<path d="M445 4899 c-76 -11 -205 -73 -267 -128 -58 -51 -115 -136 -148 -221
l-25 -65 0 -1925 0 -1925 25 -65 c33 -85 90 -170 148 -221 72 -63 192 -117
287 -130 53 -6 771 -9 2150 -7 l2070 3 65 23 c81 30 188 100 235 155 46 53 87
127 111 197 18 53 19 125 19 1970 0 1845 -1 1917 -19 1970 -57 170 -177 290
-348 352 l-63 23 -2090 1 c-1164 1 -2117 -2 -2150 -7z m4259 -230 c70 -26 139
-92 174 -167 l27 -57 3 -407 3 -408 -2351 0 -2351 0 3 408 c3 366 5 411 21
447 42 94 108 158 195 190 31 11 382 14 2129 14 2089 1 2092 1 2147 -20z
m-3424 -1684 l0 -425 -535 0 -535 0 0 425 0 425 535 0 535 0 0 -425z m1170 0
l0 -425 -480 0 -480 0 0 425 0 425 480 0 480 0 0 -425z m1180 0 l0 -425 -480
0 -480 0 0 425 0 425 480 0 480 0 0 -425z m1280 0 l0 -425 -535 0 -535 0 0
425 0 425 535 0 535 0 0 -425z m-3630 -1065 l0 -430 -532 2 -533 3 -3 415 c-1
228 0 421 3 427 3 10 120 13 535 13 l530 0 0 -430z m1170 0 l0 -430 -477 2
-478 3 -3 415 c-1 228 0 421 3 427 3 10 109 13 480 13 l475 0 0 -430z m1175 0
l0 -425 -477 -3 -478 -2 0 430 0 430 478 -2 477 -3 0 -425z m1280 0 l0 -425
-532 -3 -533 -2 0 430 0 430 533 -2 532 -3 0 -425z m-3625 -1065 l0 -426 -417
3 -418 3 -49 24 c-66 33 -122 91 -155 160 l-26 56 -3 303 -3 302 535 0 536 0
0 -425z m1170 0 l0 -425 -480 0 -480 0 0 425 0 425 480 0 480 0 0 -425z m1180
0 l0 -425 -480 0 -480 0 0 425 0 425 480 0 480 0 0 -425z m1278 123 l-3 -303
-26 -56 c-33 -69 -89 -127 -155 -160 l-49 -24 -417 -3 -418 -3 0 426 0 425
536 0 536 0 -4 -302z"/>
</g>
</svg>
