<?xml version="1.0" standalone="no"?>
<!DOCTYPE svg PUBLIC "-//W3C//DTD SVG 20010904//EN"
 "http://www.w3.org/TR/2001/REC-SVG-20010904/DTD/svg10.dtd">
<svg version="1.0" xmlns="http://www.w3.org/2000/svg"
 width="512.000000pt" height="512.000000pt" viewBox="0 0 512.000000 512.000000"
 preserveAspectRatio="xMidYMid meet">

<g transform="translate(0.000000,512.000000) scale(0.100000,-0.100000)"
fill="#000000" stroke="none">
<path d="M0 2560 l0 -970 2560 0 2560 0 0 970 0 970 -2560 0 -2560 0 0 -970z
m4870 0 l0 -710 -2310 0 -2310 0 0 710 0 710 2310 0 2310 0 0 -710z"/>
<path d="M530 3000 l0 -50 65 0 65 0 0 -390 0 -390 -65 0 -65 0 0 -50 0 -50
195 0 195 0 0 50 0 50 -65 0 -65 0 0 390 0 390 65 0 65 0 0 50 0 50 -195 0
-195 0 0 -50z"/>
</g>
</svg>
